<svg version="1.1" xmlns="http://www.w3.org/2000/svg" style="display: block;" viewBox="0 0 2048 2048" width="1024" height="1024">
<path transform="translate(0,0)" fill="rgb(254,254,254)" d="M 0 0 L 2048 0 L 2048 2048 L 0 2048 L 0 0 z"/>
<path transform="translate(0,0)" fill="rgb(250,230,193)" d="M 1766.31 492.987 C 1768.78 492.658 1771.53 492.489 1774 492.914 C 1778.34 493.661 1782.72 496.944 1785 500.647 C 1787.74 505.081 1788.22 510.528 1786.89 515.503 C 1785.12 522.12 1781.06 525.436 1775.27 528.589 C 1772.37 528.644 1769.33 528.563 1766.53 527.74 C 1761.71 526.326 1757.2 522.427 1754.92 517.98 A 16.6893 16.6893 0 0 1 1754 504.926 C 1756.14 498.603 1760.6 495.8 1766.31 492.987 z"/>
<path transform="translate(0,0)" fill="rgb(250,230,193)" d="M 964.459 1272.06 C 967.896 1271.91 971.403 1272.43 974.55 1273.85 A 23.6114 23.6114 0 0 1 987.367 1288.21 A 23.9291 23.9291 0 0 1 985.382 1307.42 C 981.956 1313.39 976.682 1317.05 970.073 1318.65 C 967.075 1318.35 963.886 1318.12 960.984 1317.26 C 954.704 1315.39 948.954 1310.6 946.107 1304.69 A 21.1593 21.1593 0 0 1 945.591 1287.38 C 949.194 1278.83 956.254 1275.14 964.459 1272.06 z"/>
<path transform="translate(0,0)" fill="rgb(250,230,193)" d="M 1705.69 391.187 C 1712.51 390.944 1718.31 391.198 1724.61 394.276 A 31.3725 31.3725 0 0 1 1740.7 412.947 A 31.1671 31.1671 0 0 1 1738.48 437.265 C 1733.66 446.161 1726.27 450.385 1716.81 452.971 C 1709.44 453.184 1703.63 453.174 1696.84 449.745 A 31.0018 31.0018 0 0 1 1680.9 430.649 C 1678.55 422.551 1679.49 413.26 1683.79 405.96 C 1688.65 397.699 1696.59 393.3 1705.69 391.187 z"/>
<path transform="translate(0,0)" fill="rgb(250,230,193)" d="M 1003.35 1149.13 C 1011.78 1148.46 1018.99 1148.75 1026.64 1152.96 A 33.5792 33.5792 0 0 1 1042.77 1173.17 C 1045.42 1182.37 1044.21 1192.72 1039.3 1200.96 C 1034.05 1209.75 1026.26 1214.2 1016.58 1216.63 C 1009.85 1217.21 1003.83 1216.7 997.556 1213.97 A 35.108 35.108 0 0 1 978.473 1193.9 A 32.788 32.788 0 0 1 979.62 1168.59 C 984.533 1158.07 992.944 1153.04 1003.35 1149.13 z"/>
<path transform="translate(0,0)" fill="rgb(250,230,193)" d="M 1474.86 501.28 C 1469.97 495.925 1462.77 491.134 1456.98 486.786 C 1423.99 462.016 1388.45 450.831 1347.37 448.752 C 1336.26 448.19 1324.42 451.073 1313.59 449.896 C 1310.73 449.585 1308.13 448.163 1306.03 446.233 C 1303.77 444.151 1302.03 441.379 1302.19 438.189 C 1302.33 435.553 1303.78 433.294 1305.75 431.631 C 1314.27 424.438 1354.31 427.88 1365.25 429.155 C 1406.17 433.921 1440.07 447.077 1473.12 471.334 C 1479.44 475.974 1487.07 480.651 1491.95 486.817 C 1486.03 491.446 1480.34 496.132 1474.86 501.28 z"/>
<path transform="translate(0,0)" fill="rgb(21,71,60)" d="M 1181.06 966.247 C 1183.71 965.966 1185.93 965.487 1188.4 966.748 C 1189.73 977.258 1188.77 988.606 1188.66 999.217 C 1185.92 998.783 1183.16 998.337 1180.39 998.162 C 1174.26 997.775 1167.91 999.28 1163.32 1003.57 C 1152.46 1013.74 1156.5 1053.33 1156.52 1068.09 C 1150.32 1068.17 1125.96 1070.34 1122.23 1066.78 L 1122.86 967.117 L 1157.24 967.199 L 1157.16 981.647 C 1164.68 972.922 1169.69 968.758 1181.06 966.247 z"/>
<path transform="translate(0,0)" fill="rgb(250,230,193)" d="M 895.446 1191.85 C 896.504 1191.97 897.146 1192.02 898.137 1192.22 C 902.008 1193 906.487 1195.41 908.441 1198.98 C 909.926 1201.7 910.114 1205.16 909.214 1208.08 C 907.401 1213.97 901.406 1217.97 896.207 1220.63 C 845.007 1246.8 789.157 1250.45 734.512 1233.3 C 730.232 1231.98 726.255 1230.02 723.85 1226.05 C 722.068 1223.11 721.364 1219.12 722.621 1215.84 C 723.62 1213.23 725.908 1211.11 728.369 1209.9 C 737.47 1205.41 746.802 1211.65 755.58 1214.21 C 789.351 1224.05 830.769 1220.95 863.292 1208.06 C 874.44 1203.64 884.917 1197.55 895.446 1191.85 z"/>
<path transform="translate(0,0)" fill="rgb(21,71,60)" d="M 481.112 916.05 A 1025.7 1025.7 0 0 1 513.765 916.336 C 514.936 966.863 513.885 1017.63 513.828 1068.18 L 480.974 1068.12 L 481.112 916.05 z"/>
<path transform="translate(0,0)" fill="rgb(21,71,60)" d="M 932.031 965.229 C 943.238 964.109 953.097 965.896 963.706 969.37 A 564.342 564.342 0 0 1 961.986 996.939 C 954.446 993.652 946.258 991.35 938.112 993.847 C 931.701 995.812 926.516 1000.67 923.722 1006.72 A 27.2827 27.2827 0 0 0 923.299 1028.77 C 925.681 1034.35 930.027 1038.86 935.796 1040.9 C 945.136 1044.2 954.562 1040.41 962.992 1036.43 L 964.202 1062.25 L 964.052 1064.51 C 962.24 1066.66 960.668 1066.98 957.992 1067.71 C 942.916 1071.79 925.134 1071.24 911.55 1062.96 A 49.4347 49.4347 0 0 1 889.405 1032.48 C 885.819 1017.81 887.82 1000.13 896.093 987.345 C 904.524 974.319 917.296 968.137 932.031 965.229 z"/>
<path transform="translate(0,0)" fill="rgb(21,71,60)" d="M 1365.91 965.212 C 1381.05 964.06 1391.87 967.298 1405.72 972.956 C 1403.27 981.308 1400.53 989.511 1397.65 997.725 C 1395.5 996.321 1393.32 994.928 1391.02 993.781 C 1385.97 991.261 1376.85 989.159 1371.38 991.29 C 1369.81 991.904 1369.99 992.482 1369.43 993.905 L 1372.87 992.899 L 1369.69 995.356 C 1375.39 1007.81 1390.8 1007.39 1400.3 1015.71 C 1406.03 1020.73 1407.89 1027.6 1408.11 1034.99 C 1408.37 1043.92 1405.91 1052.32 1399.62 1058.86 C 1390.73 1068.12 1379.35 1069.31 1367.25 1069.53 C 1352.29 1068.58 1342 1063.34 1330.61 1054.14 C 1335.6 1045.8 1340.23 1037.28 1344.87 1028.74 C 1345.74 1029.81 1346.62 1030.84 1347.55 1031.86 C 1352.43 1037.18 1358.17 1042.2 1365.86 1042.2 C 1369.51 1042.2 1371.8 1040.78 1374.35 1038.29 C 1375.38 1028.33 1344.65 1022.15 1339.61 1007.16 C 1336.86 998.992 1338.41 988.241 1342.62 980.831 C 1347.98 971.368 1355.92 967.863 1365.91 965.212 z"/>
<path transform="translate(0,0)" fill="rgb(21,71,60)" d="M 697.849 965.186 C 713.425 964.26 726.378 965.256 740.307 972.832 A 1033.76 1033.76 0 0 1 727.689 996.093 C 722.664 992.863 716.153 988.077 710.071 987.658 C 707.704 987.495 705.393 987.811 703.702 989.666 C 702.031 991.5 701.449 993.345 701.434 995.749 C 707.472 1003.83 720.939 1004.84 729.388 1009.97 C 736.772 1014.44 740.878 1021.19 742.699 1029.53 C 744.562 1038.07 743.387 1046.94 738.391 1054.24 C 731.614 1064.13 721.428 1067.81 710.214 1069.99 C 692.836 1070.96 678.915 1067.99 664.049 1058.89 C 668.659 1050.54 673.021 1042.41 675.861 1033.27 C 682.566 1038.2 689.728 1043.18 698.361 1043.5 C 702.631 1043.66 705.149 1042.48 708.273 1039.71 C 709.152 1037.63 710.04 1036.38 709.021 1034.11 C 705.745 1026.79 690.389 1024.08 683.617 1019.95 C 676.692 1015.73 671.375 1007.85 669.698 999.945 A 26.6957 26.6957 0 0 1 673.576 979.493 C 679.304 970.917 688.205 967.354 697.849 965.186 z"/>
<path transform="translate(0,0)" fill="rgb(207,101,52)" d="M 853.855 759.272 C 854.832 759.208 855.654 759.498 856.597 759.731 C 859.346 767.371 857.52 791.944 857.48 801.125 C 853.443 799.85 849.275 798.378 845.008 798.253 C 837.767 798.041 830.794 800.308 825.57 805.411 C 809.932 820.687 814.847 866.959 814.944 888.085 L 775.202 888.045 L 775.197 874.75 C 775.775 837.119 774.91 799.466 775.62 761.831 C 787.733 762.086 799.872 762.007 811.988 762.075 L 812.12 784.077 C 823.338 769.344 835.717 762.299 853.855 759.272 z"/>
<path transform="translate(0,0)" fill="rgb(207,101,52)" d="M 880.222 713.045 L 921.235 713.052 L 921.197 886.977 A 2285.23 2285.23 0 0 0 880.72 887.167 A 7130.96 7130.96 0 0 0 880.222 713.045 z"/>
<path transform="translate(0,0)" fill="rgb(250,230,193)" d="M 1435.16 580.288 C 1418.61 580.17 1400.05 575.684 1382.77 574.828 C 1308.76 571.164 1234.42 578.794 1165.59 607.378 C 1148.27 614.57 1130.13 623.304 1113.98 632.871 C 1106.17 637.496 1096.86 646.818 1087.96 648.317 A 17.0357 17.0357 0 0 1 1074.72 645.109 C 1073.44 642.988 1073.06 641.783 1073.52 639.285 C 1075.39 629.128 1089.43 622.034 1097.59 617.344 C 1184.37 567.434 1274.23 547.719 1373.99 551.779 C 1395.1 552.638 1419.6 553.366 1439.95 558.877 C 1438.11 565.994 1436.42 573.044 1435.16 580.288 z"/>
<path transform="translate(0,0)" fill="rgb(21,71,60)" d="M 439.036 920.51 L 460.756 920.418 L 460.601 952.481 C 442.236 953.244 423.638 952.56 405.249 952.479 L 405.18 981.021 L 453.001 980.782 L 452.957 1011.38 L 405.105 1010.78 L 405.019 1030.75 A 2558.43 2558.43 0 0 1 404.595 1068.12 L 369.951 1068.12 L 369.697 920.868 L 439.036 920.51 z"/>
<path transform="translate(0,0)" fill="rgb(207,101,52)" d="M 1406.97 705.419 C 1409.71 705.164 1411.71 705.153 1414.45 705.683 C 1416.16 717.938 1414.89 731.879 1414.82 744.319 C 1406.95 744.119 1397.5 741.362 1390.96 746.897 C 1387.32 749.978 1385.34 755.052 1384.93 759.711 C 1384.7 762.373 1385.13 763.415 1386.79 765.303 C 1394.75 767.275 1404.28 766.069 1412.48 765.855 L 1412.13 800.851 A 616.479 616.479 0 0 0 1386.29 800.088 A 2836.46 2836.46 0 0 0 1386.61 887.063 L 1371.5 887.081 L 1346.09 887.179 C 1346.13 858.165 1347.58 828.364 1344.99 799.459 L 1334.12 799.154 C 1334.06 790.4 1333.05 780.468 1334.33 771.881 C 1334.7 769.352 1334.5 768.626 1336.58 767.076 C 1338.28 767.129 1340.29 767.358 1341.96 767.1 C 1341.98 767.097 1344.21 766.613 1344.46 766.284 C 1347.59 762.19 1341.56 741.153 1357.12 723.914 C 1370.1 709.526 1388.7 706.713 1406.97 705.419 z"/>
<path transform="translate(0,0)" fill="rgb(21,71,60)" d="M 764.567 916.986 L 798.991 917.053 L 798.97 977.599 C 808.284 970.792 817.467 965.583 829.339 964.998 C 838.608 964.542 848.319 966.407 855.142 973.116 C 859.424 977.325 861.919 982.794 863.252 988.585 C 867.178 1005.63 864.791 1048.39 864.725 1067.95 L 831.233 1067.99 L 831.235 1040.56 C 831.352 1029.04 834.24 1007.31 826.877 998.114 A 13.1559 13.1559 0 0 0 817.153 993.096 C 812.229 992.897 807.282 994.955 803.82 998.436 C 800.866 1001.41 799.046 1005.14 798.148 1009.2 C 796.058 1018.67 797.652 1055.21 797.345 1068.01 L 764.962 1068.09 L 764.567 916.986 z"/>
<path transform="translate(0,0)" fill="rgb(250,230,193)" d="M 868.135 536.415 C 890.362 533.636 919.941 535.693 941.593 540.07 C 965.64 544.931 987.905 554.523 1006.85 570.264 C 1010.29 573.123 1014.37 576.235 1016.71 580.087 C 1018.44 582.94 1018.76 586.004 1017.75 589.156 C 1016.82 592.022 1014.99 595.051 1012.03 596.124 C 1002.49 599.571 987.359 582.627 979.668 577.852 C 974.737 574.79 968.344 572.674 962.903 570.566 C 908.294 549.406 843.066 555.079 788.256 573.192 C 771.947 578.581 756.361 585.69 740.67 592.629 C 715.658 605.041 689.882 621.74 669.463 640.915 C 662.37 647.575 648.902 668.884 641.802 671.948 C 638.569 673.342 635.822 673.173 632.724 671.508 C 629.962 670.024 627.244 665.97 627.031 662.842 C 626.596 656.438 633.187 649.594 637.062 644.974 C 693.214 578.016 782.916 543.732 868.135 536.415 z"/>
<path transform="translate(0,0)" fill="rgb(21,71,60)" d="M 576.5 966.204 A 65.2257 65.2257 0 0 1 581.161 965.896 C 594.292 965.404 603.12 969.998 612.554 978.669 L 612.449 968.717 L 644.833 968.867 L 644.242 1067.99 L 612.241 1068.03 L 611.948 1055.9 C 605.403 1062.31 599.431 1067 590.296 1069.38 C 579.236 1072.27 566.975 1070.22 557.316 1064.18 C 546.194 1057.22 538.765 1045.74 535.863 1033.06 C 532.37 1017.81 534.312 999.863 543.098 986.732 C 551.178 974.657 562.62 968.887 576.5 966.204 z"/>
<path transform="translate(0,0)" fill="rgb(254,254,254)" d="M 590.502 993.351 C 594.414 993.77 598.046 994.754 601.392 996.903 C 606.815 1000.39 610.398 1005.83 611.742 1012.1 A 26.5583 26.5583 0 0 1 608.103 1032.19 C 603.482 1039.23 597.573 1041.81 589.582 1043.42 C 586.424 1042.59 583.03 1041.78 580.156 1040.19 C 574.145 1036.88 569.695 1030.67 568.086 1024.05 C 566.454 1017.33 567.496 1009.86 571.359 1004.07 C 576.176 996.855 582.302 994.758 590.502 993.351 z"/>
<path transform="translate(0,0)" fill="rgb(21,71,60)" d="M 1025.47 965.285 A 63.745 63.745 0 0 1 1036.22 965.444 C 1047.33 966.519 1054.15 972.695 1060.95 980.863 L 1060.91 967.45 L 1094.48 967.649 L 1094.28 1067.9 L 1061.32 1067.9 L 1061.88 1054.84 C 1055.06 1061.68 1048.06 1066.91 1038.41 1069.15 C 1026.32 1071.96 1013.65 1069.24 1003.45 1062.29 A 53.2667 53.2667 0 0 1 980.94 1026.56 C 978.707 1012.06 982.182 996.537 990.98 984.712 C 999.734 972.946 1011.25 967.238 1025.47 965.285 z"/>
<path transform="translate(0,0)" fill="rgb(254,254,254)" d="M 1036.95 993.181 C 1041.52 993.459 1046.05 994.25 1049.92 996.858 C 1055.53 1000.63 1059.11 1006.8 1060.21 1013.41 C 1061.37 1020.34 1059.96 1027.62 1055.75 1033.31 C 1051.78 1038.67 1047.33 1040.45 1040.94 1041.5 C 1036.13 1041.26 1031.43 1040.87 1027.14 1038.49 A 23.617 23.617 0 0 1 1015.53 1022.99 A 24.5442 24.5442 0 0 1 1019.18 1003.88 C 1023.69 997.29 1029.38 994.8 1036.95 993.181 z"/>
<path transform="translate(0,0)" fill="rgb(21,71,60)" d="M 1277.23 918.284 A 2373.7 2373.7 0 0 1 1312.41 918.708 L 1312.07 1067.95 C 1301.52 1068.04 1290.17 1069.01 1279.73 1067.55 C 1278.41 1064.74 1278.86 1060.49 1278.82 1057.37 C 1276.44 1059.46 1273.99 1061.64 1271.36 1063.41 C 1260.6 1070.66 1247.97 1071.06 1235.6 1069.04 C 1230.74 1067.43 1226.08 1065.44 1221.89 1062.44 C 1211.39 1054.93 1205.13 1043.48 1202.87 1030.92 C 1199.92 1014.46 1202.32 996.961 1212.25 983.156 C 1219.07 973.663 1229 966.878 1240.67 965.139 C 1254.68 963.051 1266.47 968.682 1277.23 977.004 A 4822.89 4822.89 0 0 1 1277.23 918.284 z"/>
<path transform="translate(0,0)" fill="rgb(254,254,254)" d="M 1253.17 993.203 C 1257.91 992.928 1262.07 992.927 1266.42 995.09 C 1272.36 998.041 1276.55 1003.56 1278.38 1009.87 C 1280.34 1016.61 1279.76 1024.15 1276.18 1030.25 C 1272.53 1036.46 1267.32 1039.25 1260.54 1040.99 C 1257.3 1040.91 1254.04 1040.74 1250.96 1039.67 A 23.7268 23.7268 0 0 1 1237.19 1027.52 A 24.7017 24.7017 0 0 1 1236.58 1007.71 C 1239.86 999.738 1245.44 996.273 1253.17 993.203 z"/>
<path transform="translate(0,0)" fill="rgb(207,101,52)" d="M 667.704 758.354 C 685.976 756.772 704.968 760.887 720.146 771.399 A 61.3448 61.3448 0 0 1 746.138 812.168 A 65.9008 65.9008 0 0 1 734.552 862.216 C 722.317 879.396 705.604 887.523 685.225 890.954 C 665.461 891.626 647.413 888.372 631.258 876.322 C 617.606 866.138 608.292 851.267 605.994 834.319 A 66.5597 66.5597 0 0 1 618.998 784.51 C 630.919 769.01 648.617 760.757 667.704 758.354 z"/>
<path transform="translate(0,0)" fill="rgb(254,254,254)" d="M 671.601 793.145 C 679.116 792.786 685.544 793.572 692.156 797.458 A 29.7035 29.7035 0 0 1 706.011 815.975 C 708.013 824.021 706.488 833.014 702.078 840.02 C 697.074 847.969 690.128 851.731 681.242 853.939 C 674.88 854.362 669.245 854.012 663.337 851.366 A 29.1839 29.1839 0 0 1 647.715 834.438 C 644.86 826.38 645.733 817.47 649.602 809.903 C 654.402 800.517 661.953 796.176 671.601 793.145 z"/>
<path transform="translate(0,0)" fill="rgb(250,230,193)" d="M 1443.23 851.813 C 1445.53 851.92 1447.84 852.057 1449.91 853.147 C 1456.92 856.827 1463.27 863.06 1469.11 868.362 C 1494.15 891.08 1512.21 915.832 1523.44 947.988 C 1541.39 999.402 1538 1060.23 1514.07 1109.03 C 1489.81 1158.49 1443.46 1193.46 1391.87 1210.73 C 1297.04 1242.49 1201.61 1220.45 1114.95 1176.87 C 1112.58 1175.38 1109.96 1173.9 1107.89 1172.01 C 1105.53 1169.85 1104.39 1166.74 1104.34 1163.59 C 1104.29 1160.03 1105.7 1156.66 1108.36 1154.26 C 1109.42 1153.3 1110.69 1152.5 1112.03 1151.98 A 11.9469 11.9469 0 0 1 1115.26 1151.26 C 1123.89 1150.48 1146.93 1165.49 1155.74 1169.54 A 294.082 294.082 0 0 0 1181.67 1180.07 C 1210.46 1190.26 1240.9 1198.07 1271.42 1200.3 C 1336.19 1205.02 1403.98 1192.11 1454.27 1148.46 A 165.323 165.323 0 0 0 1510.79 1033.46 C 1514.04 983.627 1500.71 932.557 1465.42 895.733 C 1456.43 886.354 1443.28 879.83 1435.28 869.949 C 1433.32 867.521 1432.1 864.607 1432.78 861.428 C 1433.81 856.559 1439.24 853.841 1443.23 851.813 z"/>
<path transform="translate(0,0)" fill="rgb(207,101,52)" d="M 1043.16 711.26 L 1086.29 711.453 L 1086.77 886.665 C 1073.7 886.329 1060.68 885.934 1047.61 886.511 L 1047.52 873.953 C 1044.91 876.662 1042.11 879.286 1039.02 881.432 C 1025.19 891.013 1008.65 891.152 992.843 887.962 C 985.386 885.935 978.236 882.283 972.039 877.683 C 958.566 867.681 950.431 853.386 948.048 836.843 C 945.327 817.955 947.887 796.42 959.77 780.892 C 969.171 768.607 982.431 760.355 997.884 758.454 C 1015.07 756.34 1030.29 761.084 1043.79 771.661 C 1044.08 751.543 1043.48 731.379 1043.16 711.26 z"/>
<path transform="translate(0,0)" fill="rgb(254,254,254)" d="M 1010.36 794.289 C 1016.58 793.739 1022.82 793.747 1028.63 796.362 A 28.4427 28.4427 0 0 1 1043.78 812.888 C 1046.66 820.913 1046.64 830.267 1042.79 837.979 C 1038.81 845.952 1032.39 850.1 1024.1 852.708 C 1016.46 854.032 1009.68 854.17 1002.61 850.498 A 27.7135 27.7135 0 0 1 988.683 833.018 C 986.406 824.675 987.438 815.15 991.765 807.625 C 996.15 800.002 1002.19 796.714 1010.36 794.289 z"/>
<path transform="translate(0,0)" fill="rgb(207,101,52)" d="M 478.901 714.88 L 491.459 714.775 L 534.715 809.102 A 7936.53 7936.53 0 0 1 553.579 719.749 L 598.587 719.141 A 2154.78 2154.78 0 0 0 580.336 787.241 C 570.579 820.575 563.239 854.626 552.809 887.78 C 546.9 887.877 541.059 887.373 535.175 886.911 C 516.992 854.435 501.303 819.652 486.403 785.565 C 480.302 798.065 475.236 811.137 469.632 823.875 C 460.234 845.233 450.625 866.458 441.492 887.937 L 423.972 887.962 C 413.735 857.724 404.929 826.743 395.348 796.262 C 386.813 769.11 377.356 742.234 369.18 714.973 L 413.327 715.012 L 439.123 810.547 C 451.837 778.611 463.511 745.624 478.901 714.88 z"/>
<path transform="translate(0,0)" fill="rgb(207,101,52)" d="M 1234.24 717.288 C 1256.4 715.544 1276.34 718.872 1294.87 731.834 C 1314.03 745.238 1326.13 765.462 1329.95 788.456 C 1333.85 811.949 1327.22 837.439 1313.4 856.702 C 1298.99 876.792 1280.21 886.512 1256.24 890.471 A 85.3917 85.3917 0 0 1 1196.41 875.842 C 1177.21 862.482 1163.79 842.508 1159.95 819.326 C 1156.1 796.073 1160.39 771.813 1174.38 752.594 C 1189.18 732.261 1209.75 721.304 1234.24 717.288 z"/>
<path transform="translate(0,0)" fill="rgb(254,254,254)" d="M 1239.84 755.261 C 1251.36 754.326 1262.17 756.198 1272.03 762.529 C 1283.65 769.991 1291.56 782.428 1293.99 795.965 A 47.5871 47.5871 0 0 1 1285.39 832.462 C 1276.98 843.991 1265.5 849.532 1251.72 851.627 C 1240.87 852.244 1230.35 850.599 1220.86 844.986 A 49.6789 49.6789 0 0 1 1198.03 813.735 C 1195.04 801.203 1197.63 788.43 1204.66 777.7 C 1213.05 764.891 1225.15 758.175 1239.84 755.261 z"/>
<path transform="translate(0,0)" fill="rgb(1,2,3)" d="M 1491.95 486.817 C 1525.86 464.129 1561.72 454.995 1602.26 463.039 C 1638.15 470.159 1671.38 491.881 1691.49 522.546 A 140.304 140.304 0 0 1 1711.38 628.17 C 1699.55 682.325 1662.54 692.658 1638.07 734.302 C 1633.42 742.221 1619.44 773.859 1617.03 782.364 C 1614.65 790.766 1615.52 800.347 1613.41 808.886 C 1611.84 805.761 1612.33 801.035 1612.26 797.571 C 1586.61 796.417 1560.68 797.043 1535 797.234 L 1535.01 818.146 L 1605.6 819.409 C 1605.63 819.801 1605.66 820.194 1605.7 820.584 C 1607.6 837.16 1622.1 847.741 1609.86 864.635 C 1609.28 865.438 1608.96 865.761 1608.27 866.558 L 1606.7 867.814 C 1605.75 878.449 1646.17 974.902 1655.35 986.333 C 1667.03 1000.88 1693.67 1004.08 1711.01 1005.51 C 1726.18 1006.76 1742.18 1006.76 1757.16 1003.78 C 1756.94 996.047 1756.37 988.404 1755.67 980.701 C 1746.91 979.704 1739.79 977.804 1733.82 970.699 C 1727.59 963.281 1726.2 953.499 1727.23 944.133 C 1728.08 936.365 1730.36 928.075 1733.55 920.946 C 1734.84 916.527 1737.82 912.057 1739.98 907.963 C 1741.74 901.29 1744.3 895.374 1747.63 889.322 L 1723.33 874.339 C 1728.13 872.994 1733.42 871.804 1737.93 869.674 C 1757.14 860.594 1776.88 845.453 1799.16 858.481 C 1809.72 864.652 1845.72 889.029 1848.82 899.924 C 1852.79 913.84 1843.06 929.068 1836.6 940.738 C 1848.23 947.609 1889.93 969.812 1896.71 978.137 C 1885.3 975.533 1846.84 950.641 1834.47 942.803 C 1827.35 956.723 1820.12 970.728 1804.14 975.916 C 1799.19 977.523 1793.81 977.617 1788.65 977.842 C 1789.19 983.159 1788.79 994.176 1791.26 998.484 C 1791.67 998.528 1792.08 998.567 1792.49 998.615 C 1795.42 998.957 1798.32 999.262 1800.89 1000.82 C 1806 1003.92 1810.8 1009.35 1815.16 1013.46 A 599.436 599.436 0 0 1 1880.12 1085.06 A 314.546 314.546 0 0 1 1900.64 1114.15 C 1888.99 1134.36 1870.95 1154.82 1854.38 1171.17 C 1857.99 1185.35 1863.69 1200.25 1864.36 1214.86 C 1865.72 1244.18 1854.28 1272.52 1846.36 1300.21 C 1824.34 1377.14 1843.56 1453.56 1885.84 1519.52 C 1890.53 1526.84 1915.47 1565.63 1920.92 1568.9 L 1924.52 1568.29 C 1929.73 1572.03 1946.02 1594.47 1947.2 1600.71 C 1947.69 1603.3 1947.55 1604.09 1945.83 1606.14 C 1938.75 1614.62 1871.64 1648.33 1859.33 1651.56 C 1857.57 1650.63 1857.97 1651.25 1857.36 1649.46 C 1855.54 1644.09 1857.92 1634.27 1860.7 1629.52 C 1869 1615.26 1900.59 1600.78 1898.5 1582.64 C 1898.24 1580.33 1897.29 1579.7 1895.43 1578.5 C 1885.06 1571.83 1872.65 1567.62 1861.95 1561.07 C 1796.28 1520.84 1735.51 1468.41 1711.22 1392.68 C 1651.1 1455.59 1622.61 1514.31 1590.06 1593.98 C 1586.05 1603.81 1579.09 1609.65 1577.69 1620.85 C 1576.91 1627.13 1575.94 1645.87 1569.47 1648.77 C 1568.22 1649.33 1565.69 1649.38 1564.32 1649.47 C 1542.97 1644.41 1501.99 1622.43 1483.65 1609.47 C 1481.52 1608.61 1479.97 1607.88 1478.21 1606.39 L 1478.04 1604.1 C 1478.84 1602.79 1479.63 1601.74 1480.89 1600.83 C 1487.95 1595.74 1505.48 1590.57 1514.1 1592.34 C 1514.56 1592.44 1515.01 1592.56 1515.47 1592.66 C 1527.14 1595.23 1537.9 1600.83 1549.52 1603.16 L 1550.65 1602.25 C 1550.66 1597.15 1549.47 1592.24 1549.67 1587.1 C 1550.26 1571.26 1554.07 1554.65 1556.74 1539.01 A 872.26 872.26 0 0 1 1634.77 1295.4 C 1651.61 1261.35 1673.38 1230.37 1690.74 1196.75 C 1711.97 1155.63 1717.21 1111.6 1718.84 1066.11 C 1689.87 1063.67 1654.67 1056.76 1631.03 1038.66 C 1627.07 1035.64 1623.43 1032.1 1620.95 1027.74 C 1604.31 998.469 1594.09 911.338 1589.69 876.14 C 1582.06 870.88 1574.58 864.593 1570 856.388 C 1569.14 854.836 1568.65 853.747 1567.33 852.494 C 1566.59 851.785 1551.14 853.021 1548.65 853.057 C 1543.76 853.574 1538.7 853.43 1533.78 853.532 C 1533.34 847.467 1533.37 841.373 1533.31 835.294 C 1532.96 823.226 1533.05 810.957 1531.77 798.951 C 1529.05 797.019 1526.05 797.125 1522.81 796.727 C 1523.39 789.309 1522.14 781.716 1523.42 774.409 L 1526.2 773.621 C 1526.24 773.083 1526.35 772.546 1526.32 772.007 C 1526.1 767.147 1521.75 760.042 1519.63 755.542 C 1512.38 740.135 1504.27 724.08 1492.12 711.884 C 1484.25 703.982 1475.6 696.889 1468.25 688.463 C 1440.72 656.891 1432.42 621.251 1435.16 580.288 C 1436.42 573.044 1438.11 565.994 1439.95 558.877 C 1447.56 536.117 1457.9 518.348 1474.86 501.28 C 1480.34 496.132 1486.03 491.446 1491.95 486.817 z"/>
<path transform="translate(0,0)" fill="rgb(101,61,45)" d="M 1587.52 824.241 C 1590.93 825.302 1594.93 827.326 1596.29 830.922 C 1597.31 833.636 1596.78 834.92 1595.88 837.458 C 1595.52 837.406 1595.15 837.376 1594.8 837.301 C 1591.91 836.699 1588.53 835.189 1587.13 832.436 C 1585.72 829.67 1586.71 826.993 1587.52 824.241 z"/>
<path transform="translate(0,0)" fill="rgb(254,254,254)" d="M 1832.99 1086.86 C 1839.67 1093.42 1845.75 1102.68 1851.64 1110.08 L 1844.67 1117.89 C 1843.42 1119.52 1842.05 1120.97 1840.65 1122.46 C 1836.35 1115.73 1833.49 1095.37 1832.99 1086.86 z"/>
<path transform="translate(0,0)" fill="rgb(21,71,60)" d="M 1533.31 835.294 C 1534.34 836.36 1534.25 837.27 1534.54 838.691 C 1534.87 832.863 1534.89 826.91 1536.3 821.229 L 1538.36 820.27 C 1540.39 825.707 1542.39 834.673 1546.62 838.518 C 1552.27 840.205 1559.48 839.541 1564.66 841.974 C 1565.08 845.571 1565.85 847.37 1564.1 850.609 C 1559.46 852.786 1553.89 850.83 1548.65 853.057 C 1543.76 853.574 1538.7 853.43 1533.78 853.532 C 1533.34 847.467 1533.37 841.373 1533.31 835.294 z"/>
<path transform="translate(0,0)" fill="rgb(29,110,94)" d="M 1538.36 820.27 C 1553.96 821.589 1569.69 821.368 1585.34 822.105 L 1582.74 836.869 C 1579.62 833.821 1576.18 829.677 1571.4 829.971 C 1569.88 830.065 1568.62 831.048 1567.69 832.215 C 1565.66 834.75 1565.22 838.889 1564.66 841.974 C 1559.48 839.541 1552.27 840.205 1546.62 838.518 C 1542.39 834.673 1540.39 825.707 1538.36 820.27 z"/>
<path transform="translate(0,0)" fill="rgb(101,61,45)" d="M 1606.7 867.814 L 1606.01 867.908 C 1605.2 868.58 1604.39 869.266 1603.53 869.886 C 1600 872.435 1595.29 875.069 1590.82 874.032 C 1583.46 872.323 1575.34 861.372 1571.89 854.902 C 1569.17 849.812 1565.54 840.95 1568.22 835.197 C 1569.31 832.869 1570.04 832.653 1572.29 832.142 C 1576.74 833.795 1579.19 837.805 1583.13 840.337 C 1584.37 837.832 1584.12 835.698 1586.4 833.85 C 1589.82 836.443 1589 849.105 1592.38 855.094 C 1593.13 850.946 1590.22 844.464 1589.7 839.972 C 1594.03 839.515 1596.94 839.371 1599.83 835.864 C 1600.44 827.664 1597.54 828.189 1593.48 822.477 C 1595.85 820.804 1596.02 820.387 1598.86 820.495 C 1603.64 823.629 1608.67 835.841 1610.97 841.239 C 1613.61 847.44 1613.18 854.096 1610.47 860.169 C 1609.66 861.97 1608.91 863.429 1608.47 865.372 C 1608.38 865.763 1608.33 866.162 1608.27 866.558 L 1606.7 867.814 z"/>
<path transform="translate(0,0)" fill="rgb(29,110,94)" d="M 1537.74 776.469 A 1562.27 1562.27 0 0 1 1613.73 776.953 C 1613.67 781.931 1614.64 789.63 1611.98 793.775 C 1609 795.803 1605.79 795.139 1602.36 794.937 L 1525.06 795.072 C 1525.79 789.034 1525.7 782.939 1525.77 776.864 L 1537.74 776.469 z"/>
<path transform="translate(0,0)" fill="rgb(21,71,60)" d="M 1923.87 1572.01 L 1925.03 1572.07 C 1931.47 1575.33 1943.42 1595.97 1946.73 1602.97 C 1928.07 1617.7 1897.39 1631.68 1875.61 1642 C 1870.99 1644.46 1865.72 1647.59 1860.47 1648.06 L 1859.18 1646.96 C 1858.68 1645.21 1858.16 1643.55 1858.25 1641.72 C 1859.05 1625.92 1882.21 1612 1892.49 1601.84 C 1899.43 1594.97 1901.31 1588.54 1901.35 1578.88 C 1909.64 1577.69 1916.4 1575.72 1923.87 1572.01 z"/>
<path transform="translate(0,0)" fill="rgb(21,71,60)" d="M 1483.65 1609.47 C 1482.89 1607.95 1482.29 1606.6 1481.86 1604.96 C 1484.87 1600.07 1493.56 1597.7 1499.16 1596.36 C 1514.48 1592.7 1526.39 1597.57 1540.38 1602.79 C 1543.12 1603.82 1546.23 1605.37 1549.2 1605.38 C 1551.81 1605.38 1553.27 1603.53 1554.96 1601.84 C 1562.21 1602.23 1570.43 1604.22 1577.16 1606.91 C 1577.76 1613.04 1573.74 1642.23 1569.94 1646.23 C 1568.79 1647.44 1566.77 1647.8 1565.37 1648.61 C 1564.98 1648.84 1564.67 1649.18 1564.32 1649.47 C 1542.97 1644.41 1501.99 1622.43 1483.65 1609.47 z"/>
<path transform="translate(0,0)" fill="rgb(101,61,45)" d="M 1733.55 920.946 C 1734.84 916.527 1737.82 912.057 1739.98 907.963 C 1746.95 918.646 1756.99 925.763 1763.21 937.036 C 1765.37 933.885 1766.85 931.161 1770.44 929.601 C 1773.24 929.65 1773.21 929.596 1775.32 931.424 C 1777.39 936.398 1777.82 941.696 1775.59 946.741 C 1775.15 947.746 1774.62 948.708 1774.1 949.678 C 1781.38 966.098 1787.32 980.641 1788.12 998.752 C 1778.48 999.75 1768.66 1000.72 1759.28 1003.3 C 1759.14 995.409 1760.43 984.959 1758.45 977.381 C 1756.1 977.141 1757.39 977.071 1755.04 977.675 C 1750.82 978.759 1746.49 977.458 1742.8 975.319 C 1736.6 971.722 1731.45 965.061 1729.98 957.997 C 1728.64 951.594 1729.34 944.709 1731.5 938.582 C 1734.65 937.728 1736.66 941.895 1738.79 940.142 C 1737.83 937.646 1733.7 936.253 1734.09 934.305 L 1737.52 933.192 L 1737.87 931.579 C 1736.16 930.634 1735.55 930.718 1733.65 930.712 C 1732.4 928.494 1732.6 929.679 1733.01 927.288 C 1733.37 925.159 1733.47 923.102 1733.55 920.946 z"/>
<path transform="translate(0,0)" fill="rgb(62,149,129)" d="M 1810.9 1012.97 C 1836.32 1032.59 1880.55 1087.69 1898.33 1114.51 A 530.654 530.654 0 0 1 1868.7 1151.86 C 1863.92 1157.54 1858.69 1162.94 1853.68 1168.42 C 1849.06 1154.28 1845.22 1139.9 1841.27 1125.55 C 1845.09 1119.99 1850.24 1115.07 1854.84 1110.14 C 1848.29 1102.28 1840 1094.05 1835.01 1085.11 C 1829.39 1075.04 1826.66 1055.01 1822.7 1043.36 C 1819.23 1033.12 1813.79 1023.33 1810.9 1012.97 z"/>
<path transform="translate(0,0)" fill="rgb(250,185,57)" d="M 1770.97 857.21 C 1778.94 856.668 1788.1 856.149 1795.44 859.804 C 1804.87 864.498 1843.45 892.026 1845.84 900.533 C 1849.59 913.893 1839.12 931.245 1832.34 942.127 L 1818.46 932.892 C 1788.85 913.877 1759.94 893.872 1730.17 875.09 C 1744.97 871.189 1755.99 860.939 1770.97 857.21 z"/>
<path transform="translate(0,0)" fill="rgb(250,185,57)" d="M 1852.86 1193.32 C 1854.28 1193.5 1855.44 1193.85 1856.8 1194.28 C 1873.97 1221.56 1846.18 1285.28 1839.83 1315.65 A 249.015 249.015 0 0 0 1834.8 1380.74 C 1837.94 1439.97 1862.68 1492.22 1896.1 1540.06 C 1903.34 1550.42 1911.1 1562.92 1920.5 1571.34 A 88.9315 88.9315 0 0 1 1909.53 1574.3 C 1886.63 1579.1 1859.21 1555.74 1840.76 1543.65 C 1779.14 1500.89 1739.28 1463.17 1712.99 1390.53 C 1734.64 1368.78 1757.68 1348.46 1779.44 1326.82 C 1816.76 1289.71 1852.65 1248.74 1852.86 1193.32 z"/>
<path transform="translate(0,0)" fill="rgb(62,149,129)" d="M 1602.63 873.266 C 1603.19 873.404 1603.89 873.279 1604.31 873.681 C 1606.03 875.36 1608.69 885.513 1609.74 888.241 C 1618.08 909.882 1641.56 975.576 1655.54 990.246 C 1672.92 1008.47 1719.49 1009.9 1742.92 1007.64 C 1761.92 1005.8 1779.65 1000.87 1798.94 1001.72 C 1825.89 1033.6 1827.89 1082.67 1837.58 1121.85 C 1843.37 1145.27 1850.59 1168.29 1856.44 1191.7 C 1841.52 1196.54 1826.63 1201.43 1811.29 1204.8 C 1770.68 1211.35 1734.1 1208.64 1697.94 1188.15 C 1713.68 1147.68 1719.97 1109.09 1721.31 1066.03 C 1726.32 1066.15 1731.8 1066.61 1736.53 1064.72 C 1730.4 1062.08 1718.51 1063.55 1711.59 1063.03 C 1686.97 1061.18 1648.5 1051.49 1629.6 1034.57 C 1609.25 1016.35 1593.92 905.164 1592.8 876.47 L 1602.63 873.266 z"/>
<path transform="translate(0,0)" fill="rgb(250,185,57)" d="M 1696.86 1190.98 A 487.684 487.684 0 0 0 1704.1 1194.62 C 1752.11 1218.14 1801 1212.78 1850.11 1196.05 C 1849.14 1281.81 1746.17 1347.77 1693.81 1406.93 C 1665.85 1438.52 1643.68 1473.95 1623.9 1511.06 C 1607.72 1541.18 1595.38 1573.39 1582.31 1604.93 C 1575.99 1603.69 1569.44 1602.57 1563.27 1600.75 C 1558.96 1599.49 1554.54 1597.75 1552.34 1593.62 C 1550.71 1578.45 1557.9 1547.75 1560.69 1531.59 A 868.122 868.122 0 0 1 1647.59 1276.17 C 1662.93 1247.2 1681.19 1219.82 1696.86 1190.98 z"/>
<path transform="translate(0,0)" fill="rgb(250,185,57)" d="M 1537.43 774.204 C 1534.37 774.079 1532.22 774.57 1529.77 772.658 C 1522.21 754.179 1513.7 735.006 1501.64 718.95 C 1492.46 706.729 1479.39 697.767 1469.53 686.013 C 1436.29 646.388 1427.39 593.565 1447.65 545.671 C 1461.46 513.039 1489.51 486.237 1522.33 472.975 A 139.846 139.846 0 0 1 1629.26 474.172 A 133.543 133.543 0 0 1 1701.84 548.107 C 1715 581.161 1715.22 617.713 1701.12 650.447 C 1686.95 683.356 1655.55 701.805 1636.64 731.382 C 1633.12 736.873 1629.99 742.747 1627.56 748.801 C 1624.51 756.405 1623.74 768.517 1617.43 773.858 C 1615.41 774.094 1613.55 774.243 1611.52 774.162 L 1599.44 774.175 C 1593.7 774.196 1587.95 774.021 1582.21 773.935 L 1565.06 773.954 L 1549.28 773.945 C 1545.33 773.935 1541.37 774.112 1537.43 774.204 z"/>
<path transform="translate(0,0)" fill="rgb(254,254,254)" d="M 1599.44 774.175 C 1601.91 756.288 1627.4 657.043 1638.1 650.024 C 1640.41 648.505 1643.14 647.588 1645.92 648.266 C 1648.76 648.96 1649.97 649.842 1651.36 652.418 C 1653.18 655.765 1652.75 660.494 1651.97 664.054 C 1649.96 673.207 1645.51 682.288 1642.28 691.108 C 1637.43 704.332 1633.24 717.802 1627.99 730.878 C 1622.46 744.668 1614.2 759.545 1611.52 774.162 L 1599.44 774.175 z"/>
<path transform="translate(0,0)" fill="rgb(254,254,254)" d="M 1537.43 774.204 C 1529.05 751.424 1521.13 728.296 1511.81 705.885 C 1506.14 692.252 1495.53 673.704 1492.3 660.144 C 1491.44 656.519 1491.79 651.925 1493.35 648.515 C 1494.45 646.08 1496.31 644.178 1498.85 643.27 C 1501.71 642.247 1505.12 642.106 1507.87 643.556 C 1518.19 649.007 1544.74 747.736 1547.86 764.536 A 158.977 158.977 0 0 1 1549.28 773.945 C 1545.33 773.935 1541.37 774.112 1537.43 774.204 z"/>
<path transform="translate(0,0)" fill="rgb(254,254,254)" d="M 1564.15 645.022 C 1563.92 644.641 1563.68 644.263 1563.46 643.879 C 1559.87 637.701 1556.53 628.441 1558.53 621.288 C 1559.59 617.521 1562.23 614.474 1565.67 612.65 A 15.1418 15.1418 0 0 1 1577.27 611.473 A 16.8877 16.8877 0 0 1 1587.35 620.249 C 1589.45 624.67 1589.21 629.54 1587.45 634.032 C 1585.52 638.92 1583.89 643.072 1583.25 648.351 C 1581.62 661.684 1582.78 676.136 1582.77 689.589 A 4006.97 4006.97 0 0 1 1582.21 773.935 L 1565.06 773.954 A 4625.45 4625.45 0 0 1 1564.15 645.022 z"/>
<path transform="translate(0,0)" fill="rgb(1,2,3)" d="M 136.845 1016.02 C 139.123 1005.34 143.771 994.676 153.327 988.468 C 158.606 985.039 165.004 984.112 171.116 985.426 C 177.698 986.841 183.579 991.355 190.472 990.663 L 192.632 989.188 C 192.604 985.048 190.406 981.068 189.613 976.978 C 186.54 961.129 191.533 947.139 202.894 935.835 A 59.1578 59.1578 0 0 1 246.001 918.838 C 262.521 919.377 276.643 926.59 287.633 938.766 C 293.299 945.044 304.439 958.932 303.701 967.694 C 303.357 971.778 301.415 974.095 298.334 976.469 A 155.633 155.633 0 0 1 293.096 980.29 C 292.894 996.761 291.158 1013.21 278.549 1025.38 C 270.928 1032.74 259.466 1037.17 248.857 1036.8 C 248.244 1036.78 247.632 1036.74 247.02 1036.71 C 246.033 1042.19 244.878 1047.68 244.401 1053.23 C 250.075 1057.24 255.228 1060.85 259.682 1066.24 L 260.943 1067.75 C 270.827 1079.69 293.848 1118.5 300.832 1132.88 C 296.721 1137.02 292.606 1139.95 287.706 1143.05 C 295.412 1154.88 301.679 1170.77 311.472 1180.76 C 318.202 1187.63 338.034 1192.7 347.757 1196.8 A 407.789 407.789 0 0 1 419.652 1235.39 C 452.373 1181.44 521.372 1129.67 582.794 1114.55 A 125.687 125.687 0 0 1 594.828 1112.13 C 597.83 1121.01 602.091 1129.53 605.962 1138.06 C 615.724 1133.1 625.911 1130.22 636.585 1127.9 L 739.178 1359.03 L 493.471 1450.81 A 6284.81 6284.81 0 0 0 366.777 1497.95 C 349.858 1504.29 332.651 1510.11 315.88 1516.81 C 318.62 1525.92 322.056 1534.82 324.782 1543.92 C 344.777 1541.25 365.875 1541.25 382.559 1554.55 C 385.661 1557.02 388.33 1560.14 388.873 1564.2 C 389.467 1568.66 387.359 1572.75 384.437 1575.97 C 372.576 1589.01 341.68 1594.92 324.769 1595.22 C 317.5 1595.36 309.401 1594.15 303.886 1588.98 C 299.612 1584.97 297.769 1578.74 297.975 1573 C 298.169 1567.57 299.443 1561.97 300.461 1556.63 A 1090.81 1090.81 0 0 1 281.192 1530.24 C 276.165 1531.86 271.153 1533.55 266.062 1534.96 C 253.992 1505.94 242.293 1476.69 229.279 1448.08 A 890.074 890.074 0 0 1 172.528 1448.71 C 166.715 1491.66 157.54 1535.99 145.149 1577.53 C 160.897 1589.75 177.681 1608.89 180.206 1629.5 C 180.753 1633.97 180.195 1638.06 177.087 1641.48 C 174.154 1644.7 168.728 1645.23 164.668 1644.92 C 145.613 1643.49 117.323 1626.3 105.469 1611.55 C 101.509 1606.62 98.8506 1601.2 99.7144 1594.76 C 101.152 1584.04 110.373 1576.55 118.599 1570.64 C 119.725 1539.51 120.956 1508.41 120.503 1477.25 C 120.342 1466.2 120.806 1454.47 118.929 1443.58 C 103.889 1439.51 89.7883 1435.15 75.5892 1428.57 C 86.9864 1356.84 95.176 1284.21 111.904 1213.47 C 115.488 1198.32 118.559 1181.56 124.893 1167.29 C 130.244 1155.23 140.288 1142.77 148.556 1132.45 C 151.756 1106.78 155.45 1079.54 177.273 1062.44 C 191.162 1051.55 208.514 1046.55 225.989 1046.65 L 229.849 1030.21 C 227.384 1027.89 224.969 1025.46 222.41 1023.25 C 216.09 1020.13 210.583 1014.01 206.344 1008.49 C 203.077 1009.51 194.13 1021.78 191.922 1025 C 191.948 1032.13 192.655 1038.88 187.136 1044.35 C 183.681 1047.78 178.961 1048.8 174.233 1048.63 C 166.901 1048.38 159.869 1045.58 153.089 1043 C 150.818 1051.25 148.576 1060.12 140.307 1064.43 C 135.546 1066.91 129.489 1066.74 124.502 1065.01 C 121.694 1064.03 119.004 1062.34 116.451 1060.84 L 116.05 1062.29 C 114.39 1068.16 112.817 1072.91 107.02 1075.85 A 17.7841 17.7841 0 0 1 93.3729 1076.88 C 89.0888 1075.46 85.3728 1072.53 83.4758 1068.38 C 81.6384 1064.36 81.8673 1059.65 83.5097 1055.6 C 85.4183 1050.9 89.7039 1047.13 94.4613 1045.47 C 96.8642 1044.63 99.3123 1044.63 101.826 1044.66 C 106.194 1036.1 105.368 1021.42 116.412 1017.94 C 123.074 1015.84 129.938 1015.71 136.845 1016.02 z"/>
<path transform="translate(0,0)" fill="rgb(101,61,45)" d="M 231.981 1030.61 C 236.049 1032.66 240.647 1034.1 244.905 1035.75 A 776.799 776.799 0 0 0 241.927 1052.64 C 237.413 1050.25 232.683 1048.61 227.897 1046.87 L 231.981 1030.61 z"/>
<path transform="translate(0,0)" fill="rgb(207,101,52)" d="M 148.625 1136.69 C 151.43 1147.96 151.177 1165.11 152.257 1177.2 C 148.483 1175.84 144.917 1173.86 141.339 1172.06 C 137.084 1169.6 133.554 1167.06 129.845 1163.85 C 135.306 1154.51 142.142 1145.36 148.625 1136.69 z"/>
<path transform="translate(0,0)" fill="rgb(101,61,45)" d="M 310.719 1518.05 L 312.65 1518.09 C 317.666 1522.83 322.024 1543.91 324.065 1551.45 C 319.215 1553.48 313.687 1556.27 308.442 1556.86 C 305.512 1557.19 304.504 1556.73 302.171 1555.04 L 283.058 1528.88 L 310.719 1518.05 z"/>
<path transform="translate(0,0)" fill="rgb(254,254,254)" d="M 262.038 1171.38 C 269.974 1177.39 280.363 1190.73 288.398 1198.3 C 300.641 1209.83 314.749 1219.64 326.335 1231.75 L 325.677 1232.9 C 319.377 1234 313.165 1234.79 306.793 1235.35 C 293.28 1218.41 276.576 1202.12 261.148 1186.85 C 261.173 1181.68 261.65 1176.53 262.038 1171.38 z"/>
<path transform="translate(0,0)" fill="rgb(207,101,52)" d="M 251.954 1062.82 C 259.717 1065.85 291.945 1122.06 297.718 1132.92 C 293.853 1135.98 289.61 1138.5 285.446 1141.12 C 278.643 1145.98 271.819 1150.57 264.647 1154.86 C 267.998 1121.75 266.74 1093.02 251.954 1062.82 z"/>
<path transform="translate(0,0)" fill="rgb(254,254,254)" d="M 335.456 1545.37 C 346.934 1543.58 361.441 1546.11 371.915 1551.08 C 377.208 1553.59 383.415 1557.63 385.131 1563.61 C 385.928 1566.39 385.516 1569.22 384.113 1571.73 C 378.147 1582.41 360.181 1585.87 349.305 1588.61 C 339.096 1590.61 326.669 1593.96 316.313 1591.8 C 308.849 1590.25 305.137 1586.56 301.123 1580.33 C 300.545 1573.23 301.266 1566.93 302.571 1559.99 C 306.41 1559.57 310.445 1559.26 314.178 1558.26 C 317.886 1557.26 325.489 1552.95 327.197 1549.45 C 327.347 1549.14 327.4 1548.79 327.581 1548.5 C 329.603 1545.25 331.966 1545.82 335.456 1545.37 z"/>
<path transform="translate(0,0)" fill="rgb(254,254,254)" d="M 117.444 1574.6 C 123.62 1579.16 129.446 1586.82 137.586 1586.67 C 141.068 1585.32 142.557 1582.31 144.548 1579.35 C 152.908 1587.04 160.975 1595.73 167.172 1605.28 C 172.453 1613.42 179.602 1626.12 177.177 1636.02 C 176.33 1639.47 174.674 1640.59 171.813 1642.25 C 171.472 1642.26 171.131 1642.27 170.79 1642.27 C 151.011 1642.18 124.434 1627.01 110.731 1613.2 C 106.397 1608.84 102.371 1603.11 102.593 1596.68 C 102.925 1587.07 110.909 1580.58 117.444 1574.6 z"/>
<path transform="translate(0,0)" fill="rgb(101,61,45)" d="M 206.344 1008.49 C 212.08 1008.94 221.047 1011.68 225.767 1007.96 C 227.453 1000.8 220.652 997.913 225.109 989.364 L 226.863 988.374 L 228.788 989.868 L 227.733 988.661 C 234.544 991.015 240.146 994.314 247.147 990.981 C 261.361 984.212 274.11 972.71 284.939 961.486 C 290.721 977.921 292.702 995.709 284.693 1011.93 C 282.239 1016.89 278.813 1021.01 274.801 1024.79 C 267.998 1020.81 261.64 1015 254.441 1012.03 C 260.516 1018.43 265.649 1022.81 273.752 1026.67 C 264.728 1031.61 253.955 1035.81 243.549 1032.88 C 237.974 1031.31 226.579 1023.33 222.41 1023.25 C 216.09 1020.13 210.583 1014.01 206.344 1008.49 z"/>
<path transform="translate(0,0)" fill="rgb(250,185,57)" d="M 208.759 1187.58 C 226.786 1189.59 242.115 1192.36 260.385 1190.04 C 275.8 1204.72 290.046 1220.68 304.48 1236.32 C 300.732 1236.8 297.035 1237.69 293.342 1238.49 C 277.625 1241.38 262.251 1246.81 247.043 1251.61 C 234.51 1230.18 220.1 1209.66 208.759 1187.58 z"/>
<path transform="translate(0,0)" fill="rgb(101,61,45)" d="M 284.618 1144.74 C 294.023 1149.33 300.062 1175.85 310.463 1183.84 C 320.356 1191.44 336.451 1194.82 347.983 1199.79 C 369.802 1209.18 390.908 1219.72 410.556 1233.11 C 403.825 1232.23 397.01 1231.78 390.248 1231.18 C 370.574 1229.84 351.583 1229.97 331.96 1232.34 C 313.023 1216.3 279.12 1190.96 265.308 1171.2 C 263.344 1168.39 263.025 1165.98 263.589 1162.65 C 263.762 1161.63 263.929 1159.92 264.355 1158.98 C 265.429 1156.61 281.364 1147.08 284.618 1144.74 z"/>
<path transform="translate(0,0)" fill="rgb(101,61,45)" d="M 121.859 1443.88 C 137.815 1446.72 153.884 1447.51 170.039 1448.14 C 164.624 1486.94 155.382 1524.21 146.445 1562.26 C 145.108 1567.46 144.056 1576.33 140.745 1580.53 C 138.92 1582.85 138.28 1582.79 135.517 1583.28 C 129.779 1581.74 125.368 1577.18 120.726 1573.59 C 120.598 1560.23 122.034 1546.75 122.629 1533.4 A 1215.23 1215.23 0 0 0 123.309 1475.03 C 123.19 1464.82 123.715 1453.94 121.859 1443.88 z"/>
<path transform="translate(0,0)" fill="rgb(101,61,45)" d="M 199.229 1178.23 C 202.159 1179.21 205.625 1187.21 207.122 1189.85 C 216.062 1205.63 250.2 1266.75 261.558 1275.8 C 270.355 1282.8 284.977 1281.85 292.918 1290.04 C 294.084 1291.24 293.689 1291.04 293.638 1292.92 C 293.391 1293.08 293.165 1293.27 292.898 1293.39 C 288.846 1295.23 280.574 1292.31 276.317 1291.28 C 282.373 1300.75 290.377 1308.84 295.44 1318.97 C 291.283 1321.71 287.476 1324.1 282.752 1325.81 C 279.832 1325.41 276.579 1325.1 273.785 1324.14 C 258.134 1318.77 250.812 1293.14 241.332 1280.88 C 232.957 1270.05 222.702 1260.28 213.386 1250.22 C 194.859 1230.22 178.467 1208.64 166.289 1184.21 C 177.382 1183.68 188.444 1180.73 199.229 1178.23 z"/>
<path transform="translate(0,0)" fill="rgb(207,101,52)" d="M 177.469 1066.33 C 184.043 1065.96 191.621 1065.02 198.037 1066.69 C 201.963 1067.71 205.033 1069.62 207.104 1073.16 C 218.02 1091.84 209.893 1152.41 204.585 1174.65 L 183.895 1178.75 C 174.533 1180.44 165.843 1180.49 156.382 1179.71 C 152.2 1160.33 151.062 1139.36 153.238 1119.66 C 155.456 1099.57 161.048 1079.36 177.469 1066.33 z"/>
<path transform="translate(0,0)" fill="rgb(207,101,52)" d="M 222.5 1049.39 C 222.876 1049.38 223.252 1049.35 223.629 1049.35 C 231.908 1049.51 239.47 1053.08 245.12 1059.1 C 263.423 1078.59 264.591 1117.09 262.745 1141.98 C 261.648 1156.78 258.611 1171.4 257.927 1186.23 L 257.86 1187.85 C 242.432 1188.47 227.998 1187.55 212.726 1185.6 C 209.843 1185 208.506 1184.51 206.119 1182.62 C 205.512 1181.33 204.557 1179.69 204.669 1178.22 C 204.867 1175.61 207.873 1172.94 208.812 1170.32 C 210.101 1166.72 210.304 1162.31 210.812 1158.54 C 213.797 1136.39 216.757 1114.03 214.948 1091.62 C 214.302 1083.61 212.845 1072.61 206.126 1067.34 C 198.177 1061.09 187.318 1063.14 178.064 1064.13 C 192.607 1055.63 205.667 1050.85 222.5 1049.39 z"/>
<path transform="translate(0,0)" fill="rgb(250,185,57)" d="M 609.395 1136.47 L 613.52 1136.9 C 614.811 1137.57 615.495 1138.13 616.22 1139.41 C 630.153 1163.92 640.466 1191.37 651.934 1217.13 L 704.992 1333.9 A 8449.11 8449.11 0 0 0 540.753 1396.45 A 637.921 637.921 0 0 1 518.489 1404.3 C 553.998 1364.72 588.716 1333.68 637.274 1310.6 C 649.713 1304.68 663.609 1298.52 677.329 1296.54 C 661.852 1257.52 642.39 1219.45 625.003 1181.21 C 619.204 1168.46 610.242 1153.2 607.223 1139.61 L 609.395 1136.47 z"/>
<path transform="translate(0,0)" fill="rgb(250,185,57)" d="M 215.881 1269.02 C 221.301 1275.84 227.916 1297.86 231.844 1307.32 C 251.595 1354.91 270.645 1402.83 291.484 1449.95 C 354.259 1428.01 402.393 1418.81 469.225 1424.55 L 424.754 1439.56 A 6083.84 6083.84 0 0 0 283.625 1491.35 C 272.899 1468.09 263.654 1444.1 253.345 1420.64 C 232.787 1373.85 211.538 1327.06 193.247 1279.33 A 1204.5 1204.5 0 0 0 215.881 1269.02 z"/>
<path transform="translate(0,0)" fill="rgb(207,101,52)" d="M 634.216 1131.22 C 637.03 1133.93 727.671 1337.83 735.716 1357.7 C 722.897 1361.26 710.34 1366.92 697.857 1371.55 C 666.737 1383.08 635.872 1395.31 604.685 1406.65 L 371.06 1493.5 C 336.595 1506.41 301.916 1518.56 267.547 1531.77 C 259.732 1514.25 253.05 1496.1 245.588 1478.4 L 178.505 1317.25 L 167.636 1291.32 C 175.243 1288.07 182.771 1284.61 190.328 1281.24 C 208.975 1328.28 229.915 1374.6 250.102 1421 C 260.719 1445.4 269.819 1471.3 282.036 1494.89 C 311.457 1484.69 340.28 1472.68 369.664 1462.31 C 404.154 1450.15 439.798 1439.4 473.597 1425.55 C 481.472 1426.73 489.218 1427.73 497.172 1428.17 C 503.625 1421.82 509.904 1412.66 517.644 1408.03 C 529.308 1401.06 549.473 1396.31 562.827 1391.13 A 6205.76 6205.76 0 0 1 708.786 1335.52 L 656.792 1221.56 C 643.827 1192.93 631.351 1164.2 617.644 1135.91 L 634.216 1131.22 z"/>
<path transform="translate(0,0)" fill="rgb(250,185,57)" d="M 127.868 1166.58 C 139.055 1174.19 150.38 1179.81 163.2 1184.12 C 177.822 1213.52 198.712 1239.47 221.412 1263.06 C 203.245 1273.2 182.783 1281.12 163.829 1289.86 L 226.217 1440.73 C 226.913 1442.71 227.457 1442.89 226.615 1444.92 C 211.834 1449.66 135.477 1444.02 119.509 1440.74 C 105.222 1437.8 91.8584 1432.99 78.5348 1427.12 C 83.8665 1405.06 86.0501 1381.55 89.3774 1359.06 C 96.1829 1313.06 102.74 1267.16 112.789 1221.72 C 116.832 1203.44 120.571 1183.87 127.868 1166.58 z"/>
<path transform="translate(0,0)" fill="rgb(254,254,254)" d="M 349.619 1233.42 C 370.549 1230.97 398.38 1233.58 419.059 1238.32 C 430.66 1262.23 440.103 1287.83 450.161 1312.48 A 3863.37 3863.37 0 0 1 494.965 1424.31 C 475.275 1423.87 455.493 1420.19 435.674 1419.49 C 385.528 1417.74 339.847 1430.99 292.753 1446.23 C 287.988 1435.91 283.73 1425.33 279.316 1414.86 C 269.234 1391.88 260.362 1368.38 250.673 1345.23 C 242.777 1326.37 221.769 1284.07 219.776 1266.12 L 222.098 1264.72 C 245.177 1278.87 251.594 1319.69 274.489 1326.3 C 279.985 1327.88 288.532 1328.55 293.517 1325.12 C 295.699 1323.62 296.637 1321.7 296.88 1319.13 C 297.571 1311.81 287.542 1301.57 283.159 1295.86 C 288.612 1295.98 292.52 1295.61 297.454 1293.19 L 298.103 1291.08 C 292.149 1280.64 270.529 1279.7 261.366 1272.22 C 255.764 1267.65 252.032 1259.83 248.446 1253.69 C 282.394 1243.69 314.245 1236.17 349.619 1233.42 z"/>
<path transform="translate(0,0)" fill="rgb(254,254,254)" d="M 589.65 1116.1 C 591.118 1116.02 590.557 1115.88 591.911 1116.5 C 593.695 1117.32 668.907 1283.17 673.21 1294.15 C 628.183 1304.89 577.445 1339.87 544.767 1371.82 C 530.129 1386.13 517.039 1402.23 503.243 1417.37 C 501.728 1419.34 500.558 1421.29 498.135 1422.19 C 497.398 1421.45 429.352 1255.07 421.945 1237.73 C 423.163 1235.08 424.682 1232.53 426.193 1230.04 C 432.612 1219.45 441.14 1209.95 449.585 1200.95 C 486.965 1161.11 536.419 1129.21 589.65 1116.1 z"/>
</svg>