<svg width="261" height="110" viewBox="0 0 261 110" fill="none" xmlns="http://www.w3.org/2000/svg">
<path d="M1.7223 98L7.75923 61.6364H30.3089L29.5277 66.3594H12.4645L10.6179 77.4389H26.0653L25.2841 82.1442H9.83665L7.20881 98H1.7223ZM41.9389 61.6364L35.902 98H30.593L36.63 61.6364H41.9389ZM50.91 98.6037C49.1818 98.6037 47.6725 98.2841 46.3823 97.6449C45.092 96.9938 44.1391 96.0528 43.5236 94.8217C42.9081 93.5907 42.7483 92.0814 43.0442 90.294C43.3046 88.7552 43.8136 87.4886 44.5712 86.4943C45.3406 85.5 46.2757 84.7128 47.3766 84.1328C48.4775 83.541 49.673 83.0971 50.9632 82.8011C52.2535 82.5052 53.5556 82.2862 54.8695 82.1442C56.5267 81.9548 57.8702 81.795 58.9 81.6648C59.9417 81.5346 60.723 81.3333 61.2438 81.0611C61.7646 80.777 62.0783 80.3153 62.1848 79.6761V79.5518C62.4334 78.013 62.2085 76.8175 61.5101 75.9652C60.8236 75.1011 59.628 74.669 57.9235 74.669C56.1479 74.669 54.6564 75.0597 53.449 75.8409C52.2535 76.6222 51.3716 77.4981 50.8034 78.4688L46.0449 77.3324C46.8972 75.6752 47.9803 74.3376 49.2942 73.3196C50.62 72.2898 52.07 71.544 53.6444 71.0824C55.2187 70.6089 56.8285 70.3722 58.4739 70.3722C59.5629 70.3722 60.6934 70.5024 61.8652 70.7628C63.0371 71.0114 64.1025 71.473 65.0613 72.1477C66.0319 72.8224 66.754 73.7872 67.2275 75.0419C67.7009 76.2848 67.772 77.9006 67.4405 79.8892L64.4398 98H59.2551L59.8944 94.2713H59.6813C59.2315 94.9579 58.6041 95.6326 57.7992 96.2955C57.0061 96.9583 56.0355 97.5088 54.8873 97.9467C53.7391 98.3847 52.4133 98.6037 50.91 98.6037ZM52.7211 94.3423C54.2007 94.3423 55.5087 94.0523 56.6451 93.4723C57.7933 92.8923 58.7225 92.1347 59.4327 91.1996C60.1429 90.2526 60.5868 89.2405 60.7644 88.1634L61.3503 84.6477C61.1254 84.8371 60.7289 85.0088 60.1607 85.1626C59.6043 85.3165 58.977 85.4527 58.2786 85.571C57.5802 85.6894 56.8936 85.79 56.2189 85.8729C55.556 85.9557 55.0056 86.0327 54.5676 86.1037C53.526 86.2339 52.5494 86.4529 51.638 86.7607C50.7383 87.0684 49.9867 87.5123 49.383 88.0923C48.7793 88.6605 48.4005 89.4181 48.2466 90.3651C48.0336 91.679 48.3472 92.6733 49.1877 93.348C50.04 94.0109 51.2177 94.3423 52.7211 94.3423ZM95.3924 77.3857L90.4386 78.2379C90.332 77.6106 90.113 77.0187 89.7816 76.4624C89.462 75.906 88.9708 75.4562 88.3079 75.1129C87.645 74.7578 86.7631 74.5803 85.6623 74.5803C84.1353 74.5803 82.7977 74.9295 81.6495 75.6278C80.5131 76.3262 79.8621 77.214 79.6964 78.2912C79.5425 79.1671 79.7496 79.8774 80.3178 80.4219C80.886 80.9545 81.8862 81.3984 83.3185 81.7536L87.5089 82.7479C89.9237 83.3279 91.6519 84.2334 92.6935 85.4645C93.747 86.6837 94.114 88.2699 93.7944 90.223C93.5221 91.8447 92.8119 93.2829 91.6637 94.5376C90.5273 95.7924 89.0714 96.7749 87.2958 97.4851C85.5202 98.1953 83.5434 98.5504 81.3654 98.5504C78.2641 98.5504 75.8493 97.8935 74.1211 96.5795C72.3929 95.2656 71.5051 93.4072 71.4577 91.0043L76.7134 90.223C76.8081 91.5606 77.2875 92.5727 78.1516 93.2592C79.0276 93.9339 80.2409 94.2713 81.7915 94.2713C83.5671 94.2831 85.0527 93.9103 86.2482 93.1527C87.4438 92.3951 88.1244 91.4777 88.2901 90.4006C88.4322 89.5601 88.2428 88.8617 87.7219 88.3054C87.2129 87.7491 86.3133 87.3229 85.0231 87.027L80.6197 86.0149C78.1576 85.4349 76.4175 84.4998 75.3995 83.2095C74.3815 81.9193 74.0382 80.2976 74.3697 78.3445C74.6301 76.7464 75.3048 75.3556 76.3938 74.1719C77.4947 72.9763 78.8855 72.0471 80.5664 71.3842C82.2473 70.7095 84.1057 70.3722 86.1417 70.3722C89.1128 70.3722 91.3441 71.0114 92.8356 72.2898C94.3271 73.5563 95.1793 75.255 95.3924 77.3857ZM106.308 81.8068L103.644 98H98.3354L104.372 61.6364H109.61L107.373 75.1662H107.71C108.575 73.6866 109.735 72.5206 111.191 71.6683C112.658 70.8042 114.458 70.3722 116.588 70.3722C118.459 70.3722 120.027 70.7569 121.294 71.5263C122.572 72.2957 123.472 73.4439 123.992 74.9709C124.525 76.486 124.608 78.38 124.241 80.6527L121.329 98H116.02L118.79 81.2919C119.121 79.2914 118.861 77.7408 118.009 76.6399C117.156 75.5272 115.825 74.9709 114.014 74.9709C112.747 74.9709 111.575 75.2372 110.498 75.7699C109.433 76.3026 108.533 77.0838 107.799 78.1136C107.065 79.1316 106.568 80.3627 106.308 81.8068ZM139.813 98.5504C137.161 98.5504 134.989 97.9527 133.296 96.7571C131.604 95.5497 130.426 93.8866 129.763 91.7678C129.1 89.6489 128.994 87.2223 129.443 84.4879C129.893 81.718 130.811 79.2737 132.195 77.1548C133.592 75.0241 135.338 73.361 137.433 72.1655C139.54 70.9699 141.878 70.3722 144.447 70.3722C146.518 70.3722 148.3 70.7569 149.791 71.5263C151.283 72.2839 152.413 73.3492 153.183 74.7223C153.952 76.0954 154.284 77.6993 154.177 79.5341H149.01C148.927 78.2557 148.454 77.1548 147.59 76.2315C146.726 75.3082 145.453 74.8466 143.772 74.8466C142.293 74.8466 140.931 75.2372 139.688 76.0185C138.445 76.7879 137.398 77.8887 136.546 79.321C135.693 80.7415 135.113 82.4223 134.806 84.3636C134.474 86.3523 134.492 88.0687 134.859 89.5128C135.226 90.9569 135.901 92.0755 136.883 92.8686C137.865 93.6617 139.102 94.0582 140.594 94.0582C141.612 94.0582 142.559 93.8748 143.435 93.5078C144.323 93.129 145.104 92.5904 145.779 91.892C146.465 91.1937 146.998 90.3532 147.377 89.3707H152.561C152.052 91.1345 151.2 92.7088 150.004 94.0938C148.821 95.4787 147.365 96.5677 145.637 97.3608C143.908 98.1539 141.967 98.5504 139.813 98.5504ZM164.631 98.6037C162.902 98.6037 161.393 98.2841 160.103 97.6449C158.813 96.9938 157.86 96.0528 157.244 94.8217C156.629 93.5907 156.469 92.0814 156.765 90.294C157.025 88.7552 157.534 87.4886 158.292 86.4943C159.061 85.5 159.996 84.7128 161.097 84.1328C162.198 83.541 163.394 83.0971 164.684 82.8011C165.974 82.5052 167.276 82.2862 168.59 82.1442C170.247 81.9548 171.591 81.795 172.621 81.6648C173.662 81.5346 174.444 81.3333 174.964 81.0611C175.485 80.777 175.799 80.3153 175.906 79.6761V79.5518C176.154 78.013 175.929 76.8175 175.231 75.9652C174.544 75.1011 173.349 74.669 171.644 74.669C169.869 74.669 168.377 75.0597 167.17 75.8409C165.974 76.6222 165.092 77.4981 164.524 78.4688L159.766 77.3324C160.618 75.6752 161.701 74.3376 163.015 73.3196C164.341 72.2898 165.791 71.544 167.365 71.0824C168.939 70.6089 170.549 70.3722 172.195 70.3722C173.284 70.3722 174.414 70.5024 175.586 70.7628C176.758 71.0114 177.823 71.473 178.782 72.1477C179.753 72.8224 180.475 73.7872 180.948 75.0419C181.422 76.2848 181.493 77.9006 181.161 79.8892L178.161 98H172.976L173.615 94.2713H173.402C172.952 94.9579 172.325 95.6326 171.52 96.2955C170.727 96.9583 169.756 97.5088 168.608 97.9467C167.46 98.3847 166.134 98.6037 164.631 98.6037ZM166.442 94.3423C167.921 94.3423 169.229 94.0523 170.366 93.4723C171.514 92.8923 172.443 92.1347 173.153 91.1996C173.864 90.2526 174.308 89.2405 174.485 88.1634L175.071 84.6477C174.846 84.8371 174.45 85.0088 173.881 85.1626C173.325 85.3165 172.698 85.4527 171.999 85.571C171.301 85.6894 170.614 85.79 169.94 85.8729C169.277 85.9557 168.726 86.0327 168.288 86.1037C167.247 86.2339 166.27 86.4529 165.359 86.7607C164.459 87.0684 163.707 87.5123 163.104 88.0923C162.5 88.6605 162.121 89.4181 161.967 90.3651C161.754 91.679 162.068 92.6733 162.908 93.348C163.761 94.0109 164.938 94.3423 166.442 94.3423ZM185.232 98L189.777 70.7273H194.909L194.181 75.0597H194.465C195.199 73.5919 196.27 72.4377 197.678 71.5973C199.087 70.745 200.59 70.3189 202.188 70.3189C202.532 70.3189 202.922 70.3307 203.36 70.3544C203.798 70.3662 204.153 70.3958 204.426 70.4432L203.573 75.5213C203.372 75.4621 203.005 75.397 202.472 75.326C201.94 75.2431 201.389 75.2017 200.821 75.2017C199.578 75.2017 198.424 75.468 197.359 76.0007C196.294 76.5215 195.4 77.2495 194.678 78.1847C193.956 79.108 193.488 80.1615 193.275 81.3452L190.541 98H185.232ZM213.716 98.5327C211.503 98.5327 209.627 97.9704 208.088 96.8459C206.561 95.7095 205.478 94.0937 204.838 91.9986C204.211 89.8916 204.14 87.3643 204.625 84.4169C205.123 81.4695 206.04 78.9482 207.377 76.853C208.715 74.7578 210.337 73.1539 212.243 72.0412C214.148 70.9285 216.202 70.3722 218.404 70.3722C220.096 70.3722 221.41 70.6562 222.346 71.2244C223.292 71.7808 223.991 72.4318 224.441 73.1776C224.891 73.9233 225.228 74.5803 225.453 75.1484H225.755L228.01 61.6364H233.319L227.282 98H222.097L222.825 93.7564H222.381C221.967 94.3364 221.393 94.9993 220.659 95.745C219.937 96.4908 219.013 97.1418 217.889 97.6982C216.764 98.2545 215.373 98.5327 213.716 98.5327ZM215.51 94.005C217.037 94.005 218.404 93.6025 219.611 92.7976C220.83 91.9808 221.842 90.8504 222.647 89.4062C223.464 87.9621 224.032 86.2812 224.352 84.3636C224.672 82.4697 224.666 80.8125 224.334 79.392C224.003 77.9716 223.364 76.8648 222.417 76.0717C221.47 75.2786 220.221 74.8821 218.67 74.8821C217.072 74.8821 215.681 75.2964 214.498 76.125C213.314 76.9536 212.343 78.084 211.586 79.5163C210.84 80.9486 210.319 82.5644 210.023 84.3636C209.715 86.1866 209.703 87.826 209.988 89.282C210.272 90.7379 210.869 91.892 211.781 92.7443C212.692 93.5848 213.935 94.005 215.51 94.005ZM258.722 77.3857L253.769 78.2379C253.662 77.6106 253.443 77.0187 253.112 76.4624C252.792 75.906 252.301 75.4562 251.638 75.1129C250.975 74.7578 250.093 74.5803 248.992 74.5803C247.465 74.5803 246.128 74.9295 244.98 75.6278C243.843 76.3262 243.192 77.214 243.026 78.2912C242.873 79.1671 243.08 79.8774 243.648 80.4219C244.216 80.9545 245.216 81.3984 246.649 81.7536L250.839 82.7479C253.254 83.3279 254.982 84.2334 256.024 85.4645C257.077 86.6837 257.444 88.2699 257.124 90.223C256.852 91.8447 256.142 93.2829 254.994 94.5376C253.857 95.7924 252.401 96.7749 250.626 97.4851C248.85 98.1953 246.874 98.5504 244.695 98.5504C241.594 98.5504 239.179 97.8935 237.451 96.5795C235.723 95.2656 234.835 93.4072 234.788 91.0043L240.044 90.223C240.138 91.5606 240.618 92.5727 241.482 93.2592C242.358 93.9339 243.571 94.2713 245.122 94.2713C246.897 94.2831 248.383 93.9103 249.578 93.1527C250.774 92.3951 251.454 91.4777 251.62 90.4006C251.762 89.5601 251.573 88.8617 251.052 88.3054C250.543 87.7491 249.643 87.3229 248.353 87.027L243.95 86.0149C241.488 85.4349 239.748 84.4998 238.73 83.2095C237.712 81.9193 237.368 80.2976 237.7 78.3445C237.96 76.7464 238.635 75.3556 239.724 74.1719C240.825 72.9763 242.216 72.0471 243.896 71.3842C245.577 70.7095 247.436 70.3722 249.472 70.3722C252.443 70.3722 254.674 71.0114 256.166 72.2898C257.657 73.5563 258.509 75.255 258.722 77.3857Z" fill="#CF6534"/>
<path d="M11.5767 49L0.852273 12.6364H11.8608L16.8324 35.0085H17.1165L23.0114 12.6364H31.6761L37.571 35.0795H37.8551L42.8267 12.6364H53.8352L43.1108 49H33.6648L27.4858 28.6875H27.2017L21.0227 49H11.5767ZM67.1387 49.4972C64.1794 49.4972 61.6462 48.9112 59.5392 47.7393C57.4322 46.5556 55.8165 44.9103 54.6919 42.8033C53.5674 40.6844 53.0051 38.2282 53.0051 35.4347C53.0051 32.6411 53.5674 30.1908 54.6919 28.0838C55.8165 25.965 57.4322 24.3196 59.5392 23.1477C61.6462 21.964 64.1794 21.3722 67.1387 21.3722C70.098 21.3722 72.6311 21.964 74.7381 23.1477C76.8451 24.3196 78.4609 25.965 79.5854 28.0838C80.7099 30.1908 81.2722 32.6411 81.2722 35.4347C81.2722 38.2282 80.7099 40.6844 79.5854 42.8033C78.4609 44.9103 76.8451 46.5556 74.7381 47.7393C72.6311 48.9112 70.098 49.4972 67.1387 49.4972ZM67.2097 42.2528C68.0383 42.2528 68.7544 41.9747 69.3581 41.4183C69.9618 40.862 70.4294 40.0689 70.7608 39.0391C71.0923 38.0092 71.258 36.7841 71.258 35.3636C71.258 33.9313 71.0923 32.7062 70.7608 31.6882C70.4294 30.6584 69.9618 29.8653 69.3581 29.3089C68.7544 28.7526 68.0383 28.4744 67.2097 28.4744C66.3337 28.4744 65.5821 28.7526 64.9547 29.3089C64.3274 29.8653 63.848 30.6584 63.5165 31.6882C63.1851 32.7062 63.0194 33.9313 63.0194 35.3636C63.0194 36.7841 63.1851 38.0092 63.5165 39.0391C63.848 40.0689 64.3274 40.862 64.9547 41.4183C65.5821 41.9747 66.3337 42.2528 67.2097 42.2528ZM85.2495 49V21.7273H94.7665V26.9119H95.0506C95.5478 24.9943 96.3349 23.5916 97.4121 22.7038C98.5011 21.8161 99.7736 21.3722 101.23 21.3722C101.656 21.3722 102.076 21.4077 102.49 21.4787C102.916 21.5379 103.325 21.6267 103.715 21.745V30.108C103.23 29.9422 102.632 29.8179 101.922 29.7351C101.212 29.6522 100.602 29.6108 100.093 29.6108C99.1344 29.6108 98.2703 29.8298 97.5009 30.2678C96.7433 30.6939 96.1455 31.2976 95.7076 32.0788C95.2696 32.8482 95.0506 33.7538 95.0506 34.7955V49H85.2495ZM116.73 12.6364V49H106.929V12.6364H116.73ZM131.596 49.3551C129.655 49.3551 127.868 48.8461 126.234 47.8281C124.612 46.8101 123.31 45.2654 122.328 43.1939C121.357 41.1224 120.872 38.5123 120.872 35.3636C120.872 32.0729 121.381 29.3977 122.399 27.3381C123.429 25.2784 124.754 23.7692 126.376 22.8104C128.01 21.8516 129.726 21.3722 131.525 21.3722C132.875 21.3722 134.058 21.6089 135.076 22.0824C136.094 22.544 136.947 23.1655 137.633 23.9467C138.32 24.7161 138.841 25.5625 139.196 26.4858H139.338V12.6364H149.139V49H139.409V44.5256H139.196C138.817 45.4489 138.272 46.2775 137.562 47.0114C136.864 47.7334 136.011 48.3075 135.005 48.7337C134.011 49.148 132.875 49.3551 131.596 49.3551ZM135.218 41.8267C136.118 41.8267 136.887 41.5663 137.527 41.0455C138.178 40.5128 138.675 39.767 139.018 38.8082C139.373 37.8376 139.551 36.6894 139.551 35.3636C139.551 34.0142 139.373 32.8601 139.018 31.9013C138.675 30.9306 138.178 30.1908 137.527 29.6818C136.887 29.161 136.118 28.9006 135.218 28.9006C134.319 28.9006 133.549 29.161 132.91 29.6818C132.283 30.1908 131.797 30.9306 131.454 31.9013C131.123 32.8601 130.957 34.0142 130.957 35.3636C130.957 36.7131 131.123 37.8731 131.454 38.8438C131.797 39.8026 132.283 40.5424 132.91 41.0632C133.549 41.5722 134.319 41.8267 135.218 41.8267ZM198.997 30.8182C198.997 34.8665 198.21 38.2815 196.635 41.0632C195.061 43.8331 192.936 45.9342 190.261 47.3665C187.586 48.7869 184.603 49.4972 181.312 49.4972C177.998 49.4972 175.003 48.781 172.328 47.3487C169.664 45.9046 167.546 43.7976 165.971 41.0277C164.409 38.246 163.627 34.8428 163.627 30.8182C163.627 26.7699 164.409 23.3608 165.971 20.5909C167.546 17.8092 169.664 15.7081 172.328 14.2876C175.003 12.8553 177.998 12.1392 181.312 12.1392C184.603 12.1392 187.586 12.8553 190.261 14.2876C192.936 15.7081 195.061 17.8092 196.635 20.5909C198.21 23.3608 198.997 26.7699 198.997 30.8182ZM188.841 30.8182C188.841 28.6402 188.551 26.8054 187.971 25.3139C187.402 23.8106 186.556 22.6742 185.431 21.9048C184.319 21.1236 182.946 20.733 181.312 20.733C179.679 20.733 178.3 21.1236 177.175 21.9048C176.062 22.6742 175.216 23.8106 174.636 25.3139C174.068 26.8054 173.784 28.6402 173.784 30.8182C173.784 32.9962 174.068 34.8369 174.636 36.3402C175.216 37.8317 176.062 38.968 177.175 39.7493C178.3 40.5187 179.679 40.9034 181.312 40.9034C182.946 40.9034 184.319 40.5187 185.431 39.7493C186.556 38.968 187.402 37.8317 187.971 36.3402C188.551 34.8369 188.841 32.9962 188.841 30.8182ZM220.042 21.7273V28.8295H201.789V21.7273H220.042ZM205.269 49V20.946C205.269 18.697 205.671 16.8326 206.476 15.353C207.281 13.8733 208.418 12.7666 209.885 12.0327C211.353 11.2988 213.081 10.9318 215.07 10.9318C216.313 10.9318 217.52 11.0265 218.692 11.2159C219.876 11.4053 220.752 11.571 221.32 11.7131L219.9 18.7443C219.545 18.6378 219.13 18.5549 218.657 18.4957C218.183 18.4247 217.769 18.3892 217.414 18.3892C216.491 18.3892 215.869 18.5845 215.55 18.9751C215.23 19.3658 215.07 19.8807 215.07 20.5199V49H205.269Z" fill="#15473C"/>
</svg>
